<?xml version="1.0" encoding="UTF-8"?>
<svg id="Layer_2" data-name="Layer 2" xmlns="http://www.w3.org/2000/svg" viewBox="0 0 146.45 20.76">
  <defs>
    <style>
      .cls-1 {
        fill: #fff;
      }

      .cls-2 {
        fill: #05ec8e;
      }

      .cls-3 {
        fill: #5785f4;
      }
    </style>
  </defs>
  <g id="Layer_1-2" data-name="Layer 1">
    <g>
      <path class="cls-1" d="M5.36,16.47L0,.29h4.15l4.75,15.18c.4,1.3,1.15,1.73,2.07,1.73s1.67-.43,2.07-1.73L17.8.29h4.09l-5.36,16.18c-1.12,3.37-3.14,4.29-5.56,4.29s-4.52-.92-5.62-4.29Z"/>
      <path class="cls-1" d="M35.86,15.29h-10.86l-1.76,5.15h-4.09l5.73-16.16c1.18-3.37,3.14-4.29,5.53-4.29s4.43.92,5.62,4.29l5.73,16.16h-4.15l-1.76-5.15ZM34.77,11.98l-2.28-6.68c-.4-1.24-1.15-1.73-2.07-1.73s-1.64.49-2.04,1.73l-2.28,6.68h8.67Z"/>
      <path class="cls-1" d="M43.35,14.4V.29h3.8v13.77c0,2.1,1.04,3.11,3.31,3.11h8.41l-.52,3.28h-8.84c-4.03,0-6.16-1.93-6.16-6.05Z"/>
      <path class="cls-1" d="M102.4,20.45h-4.75l-6.05-7.17v-2.28h1.56c3.57,0,4.98-1.3,4.98-3.71s-1.41-3.71-4.98-3.71h-5.01v16.88h-3.77V.29h9.01c5.82,0,8.64,2.76,8.64,7,0,3.31-1.73,5.73-5.21,6.62l5.59,6.54Z"/>
      <path class="cls-1" d="M104.98,14.4V.29h15.67l.49,3.28h-12.35v5.01h10.11v3.17h-10.11v2.3c0,2.1,1.04,3.11,3.31,3.11h9.3l-.49,3.28h-9.76c-4.03,0-6.16-1.96-6.16-6.05Z"/>
      <path class="cls-1" d="M146.45.29v20.16h-3.57V6.31l-6.11,7.4h-2.59l-6.11-7.4v14.14h-3.54V.29h2.91l8.06,9.88L143.54.29h2.91Z"/>
      <g>
        <path class="cls-3" d="M65.13,8.63c3.05-1.98,6.09-5.77,5.65-8.63-6.92.1-10.28,3.28-10.41,9.94.11,0,.22,0,.32,0,1.57,0,3.12-.45,4.44-1.31Z"/>
        <path class="cls-2" d="M71.5.87c0,2.43,2.23,4.84,3.86,6.52,1.88,1.63,3.89,2.97,6.42,2.68C81.69,3.35,78.36.12,71.5,0c0,.3,0,.59,0,.87Z"/>
        <path class="cls-3" d="M70.65,20.44c0-.98-.18-1.96-.56-2.86-1.25-3-4.04-5.49-6.91-6.65-.95-.38-1.78-.21-2.82-.26.1,6.7,3.41,9.93,10.29,10.06,0-.1,0-.19,0-.29Z"/>
        <path class="cls-3" d="M80.59,10.79c-3.76-.02-9.8,6.13-9.21,9.94,6.9-.08,10.27-3.27,10.4-9.94-.42,0-.82,0-1.19,0Z"/>
      </g>
    </g>
  </g>
</svg>